<svg width="190" height="28" viewBox="0 0 190 28" fill="none" xmlns="http://www.w3.org/2000/svg">
<g clip-path="url(#clip0_78718_834)">
<path d="M43.9406 22.5752C42.7259 21.3842 42.1211 19.7286 42.1211 17.5986H46.1151C46.1151 18.6068 46.375 19.3926 46.8949 19.9658C47.4148 20.5342 48.1296 20.8208 49.0544 20.8208H52.3136C53.1734 20.8208 53.8732 20.6429 54.4131 20.2821C54.9529 19.9263 55.2179 19.4469 55.2179 18.844V17.8556C55.2179 16.9067 54.513 16.3187 53.1034 16.0864L47.7047 15.1869C45.9452 14.8954 44.6105 14.3419 43.7007 13.5165C42.7909 12.6962 42.336 11.6435 42.336 10.3685V8.74257C42.336 7.71958 42.616 6.81519 43.1708 6.02942C43.7307 5.24364 44.5205 4.64072 45.5503 4.2157C46.575 3.79069 47.7647 3.57819 49.1144 3.57819H52.4286C53.6982 3.57819 54.823 3.84011 55.8027 4.36396C56.7825 4.88781 57.5373 5.61923 58.0772 6.55327C58.617 7.49225 58.882 8.57949 58.882 9.81498H54.888C54.888 9.0045 54.663 8.35215 54.2131 7.85795C53.7632 7.36375 53.1684 7.11665 52.4236 7.11665H49.1094C48.2896 7.11665 47.6247 7.28962 47.1299 7.64051C46.635 7.99139 46.38 8.45099 46.38 9.03415V9.81993C46.38 10.7886 47.0549 11.3865 48.4045 11.6188L53.7732 12.5479C55.5528 12.8593 56.9125 13.4029 57.8522 14.1887C58.792 14.9744 59.2619 15.9826 59.2619 17.223V19.1405C59.2619 20.1685 58.972 21.0729 58.3971 21.8685C57.8172 22.6642 57.0124 23.277 55.9777 23.7119C54.9379 24.1468 53.7382 24.3642 52.3686 24.3642H48.9944C46.8399 24.3642 45.1603 23.7712 43.9456 22.5802L43.9406 22.5752Z" fill="white"/>
<path d="M66.656 7.29941H60.1426V3.81531H77.2234V7.29941H70.71V24.1269H66.661V7.29941H66.656Z" fill="white"/>
<path d="M88.4944 19.3974H80.8063L78.9868 24.1269H74.7578L82.8008 3.81531H84.6204C85.8901 3.81531 86.7549 4.39352 87.2047 5.55489L94.513 24.1269H90.284L88.4944 19.3974ZM81.8911 16.0319H87.4097L84.6804 8.71777H84.6504L81.8911 16.0319Z" fill="white"/>
<path d="M99.1773 16.2345L91.5742 3.81531H95.9781L101.202 12.5478L106.426 3.81531H110.829L103.226 16.2345V24.1269H99.1773V16.2345Z" fill="white"/>
<path d="M119.337 22.2687L112.264 3.81531H116.493L121.891 19.0515H121.951L127.38 3.81531H131.579L123.686 24.1269H121.776C120.642 24.1269 119.827 23.5092 119.342 22.2687H119.337Z" fill="white"/>
<path d="M134.119 23.3708C133.589 22.8667 133.324 22.2094 133.324 21.3989V3.81531H148.995V7.29942H137.373V11.9993H148.116V15.4834H137.373V20.6477H148.995V24.1319H136.169C135.329 24.1319 134.644 23.8798 134.114 23.3757L134.119 23.3708Z" fill="white"/>
<path d="M151.758 3.81531H162.675C164.455 3.81531 165.889 4.28974 166.974 5.2386C168.059 6.18747 168.604 7.43285 168.604 8.97969V11.0109C168.604 12.019 168.314 12.8938 167.739 13.6351C167.159 14.3813 166.324 14.9447 165.23 15.3302V15.3895C165.854 15.7947 166.329 16.2593 166.654 16.7831C166.979 17.307 167.294 18.0285 167.609 18.9576L169.254 24.122H165.055L163.5 19.3035C163.245 18.4733 162.895 17.8506 162.445 17.4453C161.995 17.0401 161.435 16.8375 160.771 16.8375H155.812V24.122H151.763V3.81531H151.758ZM161.91 13.3929C162.73 13.3929 163.38 13.1754 163.85 12.7406C164.32 12.3057 164.555 11.7373 164.555 11.0454V9.15761C164.555 8.59916 164.38 8.14944 164.025 7.80844C163.675 7.47238 163.205 7.29942 162.615 7.29942H155.807V13.3929H161.91Z" fill="white"/>
<path d="M184.381 19.3974H176.693L174.873 24.1269H170.645L178.688 3.81531H180.507C181.777 3.81531 182.642 4.39352 183.091 5.55489L190.4 24.1269H186.171L184.381 19.3974ZM177.773 16.0319H183.291L180.562 8.71777H180.532L177.773 16.0319Z" fill="white"/>
<path d="M22.9751 18.0681C22.0703 17.2922 20.7807 16.7584 19.1111 16.4668L13.8024 15.5427C13.5424 15.5032 13.1275 15.3697 12.7027 15.2215C11.9428 14.9497 11.7279 13.9909 12.2928 13.4226C12.2928 13.4226 14.2373 11.4853 15.357 10.3734C15.7769 9.95329 16.4617 9.95329 16.8866 10.3734L19.6509 13.1211H24.0699L17.8214 6.90902C17.6464 6.73605 17.4465 6.57791 17.2265 6.46919C16.2468 5.97993 15.1371 6.19738 14.4322 6.90408L9.33348 11.9795C8.13378 13.1705 7.92883 15.0831 8.96857 16.4125C9.10854 16.5953 9.2685 16.7634 9.44845 16.9265C10.3332 17.732 11.6029 18.2707 13.2525 18.5425L18.5612 19.437C19.321 19.5704 19.9009 19.8126 20.3108 20.1585C20.7207 20.5045 20.9206 20.9344 20.9206 21.4583V22.7284C20.9206 23.4005 20.6307 23.9441 20.0458 24.3592C19.461 24.7743 18.6962 24.977 17.7414 24.977H14.5072C13.4975 24.977 12.7027 24.6656 12.1328 24.038C11.5579 23.4153 11.273 22.5653 11.273 21.4879H7.92383C7.92383 23.4894 8.50868 25.061 9.6734 26.2174C10.8381 27.3689 12.4327 27.9471 14.4572 27.9471H17.8114C19.0961 27.9471 20.2308 27.7346 21.2206 27.3145C22.2103 26.8895 22.9801 26.3014 23.525 25.5404C24.0699 24.7793 24.3398 23.9095 24.3398 22.931V21.058C24.3398 19.8472 23.8899 18.8538 22.9851 18.073L22.9751 18.0681Z" fill="#CAA764"/>
<path d="M30.2588 11.604L20.2213 1.67552C19.1265 0.593223 17.6719 0.000183105 16.1273 0.000183105C14.5827 0.000183105 13.128 0.598165 12.0333 1.67552L1.99076 11.604C-0.663587 14.2282 -0.663587 18.4931 1.99076 21.1173L5.61487 24.7003V20.3217L4.20522 18.928C2.77557 17.5146 2.77557 15.2116 4.20522 13.7933L14.2477 3.86977C14.7476 3.37557 15.4175 3.09881 16.1273 3.09881C16.8371 3.09881 17.5069 3.37062 18.0068 3.86977L28.0444 13.7933C29.474 15.2067 29.474 17.5097 28.0444 18.928L26.6347 20.3217V24.7003L30.2588 21.1173C32.9132 18.4931 32.9132 14.2282 30.2588 11.604Z" fill="white"/>
</g>
<defs>
<clipPath id="clip0_78718_834">
<rect width="190" height="28" fill="white"/>
</clipPath>
</defs>
</svg>
